<svg id="Layer_1" data-name="Layer 1" xmlns="http://www.w3.org/2000/svg" viewBox="0 0 24 24"><defs><style>.cls-1,.cls-2{fill:#fff;}.cls-1{fill-opacity:0;}</style></defs><rect class="cls-1" width="24" height="24"/><path class="cls-2" d="M20.3,13.43a1,1,0,0,0-1.25.65A7.14,7.14,0,0,1,12.18,19,7.1,7.1,0,0,1,5,12a7.1,7.1,0,0,1,7.18-7,7.3,7.3,0,0,1,4.65,1.67l-2.17-.36a1,1,0,0,0-1.15.82h0a1,1,0,0,0,.82,1.15h0l4.24.7h.17a1,1,0,0,0,.34-.06.21.21,0,0,0,.1-.06.78.78,0,0,0,.2-.11l.09-.11c0-.05.09-.09.13-.15s0-.1.05-.14a1.34,1.34,0,0,0,.07-.18l.75-4a1,1,0,0,0-2-.38h0l-.27,1.45a9.19,9.19,0,0,0-6-2.25A9.1,9.1,0,0,0,3,12a9.1,9.1,0,0,0,9.18,9A9.12,9.12,0,0,0,21,14.68a1,1,0,0,0-.67-1.24Z" transform="translate(0 0)"/></svg>